<svg width="28" height="32" viewBox="0 0 28 32" fill="none" xmlns="http://www.w3.org/2000/svg">
<path d="M24.1878 10.0661C24.0209 9.00174 23.1026 8.21565 22.0243 8.22261H19.8052V6.11478C19.8052 2.73391 17.0643 0 13.6904 0C10.3165 0 7.57565 2.74087 7.57565 6.11478V8.21565H5.35652C4.27826 8.2087 3.36 8.99478 3.19304 10.0591L0.00695642 28.0209C-1.06252e-07 28.0487 0 28.0765 0 28.1043C0 30.2539 1.74609 31.993 3.89565 32H23.4852C25.6348 32 27.3739 30.2539 27.3809 28.1043C27.3809 28.0765 27.3809 28.0487 27.3739 28.0209L24.1878 10.0661ZM8.54261 6.11478C8.54261 3.27652 10.8452 0.973913 13.6835 0.973913C16.5217 0.973913 18.8244 3.27652 18.8244 6.11478V8.21565H8.54261V6.11478ZM23.4852 31.0261H3.8887C2.29565 31.0261 0.994783 29.7461 0.966957 28.1461L4.13913 10.233V10.2261C4.22957 9.63478 4.74435 9.19652 5.34261 9.19652H7.56174V12.4243C7.56174 12.6957 7.77739 12.9113 8.0487 12.9113C8.32 12.9113 8.53565 12.6957 8.53565 12.4243V9.19652H18.8244V12.4243C18.8244 12.6957 19.04 12.9113 19.3113 12.9113C19.5826 12.9113 19.7983 12.6957 19.7983 12.4243V9.19652H22.0174C22.6157 9.19652 23.1304 9.63478 23.2209 10.2261V10.233L26.393 28.1461C26.3791 29.7461 25.0783 31.0261 23.4852 31.0261Z" fill="white"/>
</svg>
